<?xml version="1.0" encoding="UTF-8" standalone="no"?>
<svg
   id="Capa_1"
   version="1.1"
   viewBox="0 0 1080 1080"
   xmlns="http://www.w3.org/2000/svg"
   xmlns:svg="http://www.w3.org/2000/svg">
  <!-- Generator: Adobe Illustrator 29.5.1, SVG Export Plug-In . SVG Version: 2.1.0 Build 141)  -->
  <defs
     id="defs1">
    <style
       id="style1">
      .st0 {
        font-size: 79.63px;
      }

      .st0, .st1, .st2 {
        font-family: MyriadPro-Regular, 'Myriad Pro';
      }

      .st1 {
        font-size: 77.52px;
      }

      .st2 {
        font-size: 72px;
      }

      .st3 {
        fill: #fff;
      }
    </style>
  </defs>
  <path
     style="display:inline;fill:none;fill-opacity:1;stroke:#000000;stroke-opacity:1;stroke-dasharray:none;stroke-width:4.3"
     d="m 791.80785,952.9419 -61.02,-102.95 c -125.28,73.65 -283.61,67.27 -404.09,-13.14 l -61.03,92.23 c 153.05,112.05 362.3,115.19 526.14,23.86 z"
     id="seg4" />
  <path
     style="display:inline;fill:none;fill-opacity:1;stroke:#000000;stroke-opacity:1;stroke-dasharray:none;stroke-width:4.3"
     d="m 722.71785,839.9219 -61.54,-102.85 c -84.33,42.98 -179.97,39.4 -259.28,-13.01 l -64.54,98.99 c -0.02,6.24 11.9,11.39 16.83,14.53 107.23,68.2 259.7,64.75 368.53,2.34 z"
     id="seg10" />
  <path
     style="display:inline;fill:none;fill-opacity:1;stroke:#000000;stroke-opacity:1;stroke-dasharray:none;stroke-width:4.3"
     d="m 458.57785,615.0919 -77.18,69.99 c 75.18,84.81 220.36,90.89 303.65,15.23 l -73.37,-82.07 c -31.61,25.79 -77,31.11 -115.27,17.57 -14.7,-5.2 -23.94,-15.47 -37.82,-20.73 z"
     id="seg15" />
  <path
     style="display:inline;fill:none;fill-opacity:1;stroke:#000000;stroke-opacity:1;stroke-dasharray:none;stroke-width:4.3"
     d="m 917.14785,529.9819 c -1.59,126.72 -66.91,243.13 -172.06,312.09 l 60.78,101.34 c 68.77,-45.49 126.07,-102.91 166.18,-175.23 33.84005,-61 58.28005,-138.29 60.99005,-208.45 0.37,-9.55 2.78,-23.19 -4.66,-29.75 z"
     id="seg5" />
  <path
     style="display:inline;fill:none;fill-opacity:1;stroke:#000000;stroke-opacity:1;stroke-dasharray:none;stroke-width:4.3"
     d="m 901.47785,529.9819 h -122.2 c 1.43,77.63 -39.68,152.64 -103.14,196.32 l 60.83,104.42 c 99.55,-65.08 168.41,-179.58 164.51,-300.74 z"
     id="seg11" />
  <path
     style="display:inline;fill:none;fill-opacity:1;stroke:#000000;stroke-opacity:1;stroke-dasharray:none;stroke-width:4.3"
     d="m 303.00785,529.9819 h -125.33 c -1.72,111.21 54.63,221.36 145.26,284.9 l 67.88,-98.52 -1.44,-4.71 c -54.38,-43.11 -86.76,-111.65 -86.36,-181.67 z"
     id="seg9" />
  <path
     style="display:inline;fill:none;fill-opacity:1;stroke:#000000;stroke-opacity:1;stroke-dasharray:none;stroke-width:4.3"
     d="m 162.00785,529.9819 h -106.53 c -1.84,155.15 74.03,298.62 195.83,391.61 l 63.48,-92.41 c -93.31,-71.8 -150.52,-180.35 -152.78,-299.2 z"
     id="seg3" />
  <path
     style="display:inline;fill:none;fill-opacity:1;stroke:#000000;stroke-opacity:1;stroke-dasharray:none;stroke-width:4.3"
     d="m 524.70785,421.1419 c -132.36,17.25 -112.57,217.47 21.08,209.06 142.44,-8.96 122.81,-227.81 -21.08,-209.06 z"
     id="seg17" />
  <path
     style="display:inline;fill:none;fill-opacity:1;stroke:#000000;stroke-opacity:1;stroke-dasharray:none;stroke-width:4.3"
     d="m 712.15785,675.9319 c 64.6,-74 72.44,-190.12 14.55,-270.41 -3.47,-4.82 -12.5,-19.83 -17.88,-19.86 l -73.51,64.86 c 5.27,17.25 18.16,32.18 21.01,50.45 6.81,43.75 -5.07,74.74 -30.62,108.97 l 68.85,78.44 c 5.59,3.62 13.63,-7.9 17.6,-12.45 z"
     id="seg16" />
  <path
     style="display:inline;fill:none;fill-opacity:1;stroke:#000000;stroke-opacity:1;stroke-dasharray:none;stroke-width:4.3"
     d="m 390.68785,370.2019 c -6.24,-4.4 -36.58,35.57 -40.75,42.2 -43.58,69.28 -44.29,163.69 -1.24,233.26 2.97,4.8 18.79,27.63 22.02,28.32 l 76.69,-67.53 c 0.91,-6.38 -15.95,-28.64 -19.18,-37.18 -17.56,-46.51 -6.71,-91.09 24.97,-128.17 l -62.51,-70.91 z"
     id="seg14" />
  <path
     style="display:inline;fill:none;fill-opacity:1;stroke:#000000;stroke-opacity:1;stroke-dasharray:none;stroke-width:4.3"
     d="m 459.98785,432.6219 c 2.83,1.95 27.71,-14.45 34.2,-16.96 44.83,-17.36 95.88,-7.65 129.99,26.37 l 73.41,-69.85 c -77.92,-81.42 -214.88,-85.59 -300.52,-12.97 l 62.93,73.41 z"
     id="seg13" />
  <path
     style="display:inline;fill:none;fill-opacity:1;stroke:#000000;stroke-opacity:1;stroke-dasharray:none;stroke-width:4.3"
     d="m 901.47785,517.4519 c -1.34,-115.64 -65.72,-228.94 -164.41,-288.34 l -67.27,101.96 c 62.65,42.22 105.02,109.81 109.49,186.39 h 122.2 z"
     id="seg12" />
  <path
     style="display:inline;fill:none;fill-opacity:1;stroke:#000000;stroke-opacity:1;stroke-dasharray:none;stroke-width:4.3"
     d="m 177.67785,514.3219 h 125.33 c 6.24,-77.68 49.11,-143.13 112.21,-186.39 l -63.87,-105.23 c -15.33,-2.38 -84.93,67.37 -96.64,81.95 -46.36,57.71 -75.24,135.62 -77.03,209.67 z"
     id="seg8" />
  <path
     style="display:inline;fill:none;fill-opacity:1;stroke:#000000;stroke-opacity:1;stroke-dasharray:none;stroke-width:4.3"
     d="m 659.88785,322.9619 66.09,-101.41 c -107.05,-67.99 -253.7,-70.82 -363.08,-6.53 l 64.36,104.78 c 76.34,-34.52 157.35,-33.3 232.63,3.15 z"
     id="seg7" />
  <path
     style="display:inline;fill:none;fill-opacity:1;stroke:#000000;stroke-opacity:1;stroke-dasharray:none;stroke-width:4.3"
     d="m 1033.0779,517.4519 c -5.82,-157.91 -90.49005,-307.32 -224.07005,-391.07 l -61.26,91.65 c 101.86,65.42 163.09,178.51 169.4,299.42 z"
     id="seg6" />
  <path
     style="display:inline;fill:none;fill-opacity:1;stroke:#000000;stroke-opacity:1;stroke-dasharray:none;stroke-width:4.3"
     d="m 165.14785,514.3219 c 0,-124.35 73.98,-241.32 178.43,-305.45 l -53.15,-89.35 c -138.65,81.92 -227.7,233.45 -234.95,394.81 h 109.67 z"
     id="seg2" />
  <path
     style="display:inline;fill:none;fill-opacity:1;stroke:#000000;stroke-opacity:1;stroke-dasharray:none;stroke-width:4.3"
     d="m 738.30785,207.0519 54.22,-82.24 1.08,-8.5 c -147.43,-88.39 -342.33,-93.05 -490.54,-4.38 l 52.05,88.88 c 85.12,-43.44 180.02,-58.36 273.86,-35.98 38.77,9.24 72.78,29.6 109.33,42.21 z"
     id="seg1" />
  <text
     class="st2"
     id="text7"
     style="display:inline"
     x="902.25189"
     y="355.65976"><tspan
       x="902.25189"
       y="355.65976"
       id="tspan7">6</tspan></text>
  <path
     style="display:none"
     d="m 493.51785,35.8619 c 355.51,-29.8199997 636.67005,297.13 530.99005,643.79 -121.48005,398.47 -657.38005,476.2 -895.12005,135.2 -215.31,-308.84 -8.25,-747.76 364.13,-778.99 z"
     id="path1" />
  <text
     class="st2"
     id="text2"
     style="display:inline"
     x="525.65997"
     y="131.09"><tspan
       x="525.65997"
       y="131.09"
       id="tspan2">1</tspan></text>
  <text
     class="st0"
     id="text3"
     style="display:inline"
     x="142.03"
     y="347.44"><tspan
       x="142.03"
       y="347.44"
       id="tspan3">2</tspan></text>
  <text
     class="st2"
     id="text4"
     transform="translate(139.29,741.02)"
     style="display:inline"><tspan
       x="0"
       y="0"
       id="tspan4">3</tspan></text>
  <text
     class="st2"
     id="text5"
     style="display:inline"
     x="521.09998"
     y="998.75"><tspan
       x="521.09998"
       y="998.75"
       id="tspan5">4</tspan></text>
  <text
     class="st2"
     id="text6"
     style="display:inline"
     x="908"
     y="764"><tspan
       x="908"
       y="764"
       id="tspan6">5</tspan></text>
  <text
     class="st2"
     id="text8"
     style="display:inline"
     x="527.94"
     y="259"><tspan
       x="527.94"
       y="259"
       id="tspan8">7</tspan></text>
  <text
     class="st2"
     id="text9"
     transform="translate(259,402)"
     style="display:inline"><tspan
       x="0"
       y="0"
       id="tspan9">8</tspan></text>
  <text
     class="st2"
     id="text10"
     transform="translate(258.95,693.43)"
     style="display:inline"><tspan
       x="0"
       y="0"
       id="tspan10">9</tspan></text>
  <text
     class="st2"
     id="text11"
     style="display:inline"
     x="501"
     y="857"><tspan
       x="501"
       y="857"
       id="tspan11">10</tspan></text>
  <text
     class="st2"
     id="text12"
     style="display:inline"
     x="765.78003"
     y="688"><tspan
       x="765.78003"
       y="688"
       id="tspan12">11</tspan></text>
  <text
     class="st2"
     id="text13"
     style="display:inline"
     x="756"
     y="414"><tspan
       x="756"
       y="414"
       id="tspan13">12</tspan></text>
  <text
     class="st2"
     id="text14"
     style="display:inline"
     x="500.04999"
     y="389.41"><tspan
       x="500.04999"
       y="389.41"
       id="tspan14">13</tspan></text>
  <text
     class="st2"
     id="text15"
     style="display:inline"
     x="322"
     y="557"><tspan
       x="322"
       y="557"
       id="tspan15">14</tspan></text>
  <text
     class="st2"
     id="text16"
     style="display:inline"
     x="493.53"
     y="725"><tspan
       x="493.53"
       y="725"
       id="tspan16">15</tspan></text>
  <text
     class="st2"
     id="text17"
     style="display:inline"
     x="664"
     y="558"><tspan
       x="664"
       y="558"
       id="tspan17">16</tspan></text>
  <text
     class="st1"
     id="text18"
     style="display:inline"
     x="490.48999"
     y="559.62"><tspan
       x="490.48999"
       y="559.62"
       id="tspan18">17</tspan></text>
</svg>
